<svg xmlns="http://www.w3.org/2000/svg"
     width="634" height="160" viewBox="0 0 634 160">

    <defs>
        <marker id="arrow" orient="auto" overflow="visible">
            <path stroke-linejoin="round" fill="#6897bb"
                  d="M -13,4 L 0,0 -13,-4 C -10,-2 -10,2 -13,4 z"/>
        </marker>
    </defs>

    <g font-family="monospace" font-size="13px">
        <rect width="312" height="160" fill="#2b2b2b" />

        <text x="5" y="20">
            <tspan fill="#cc7832">val</tspan> <tspan fill="#a9b7c6">contentView = koshian(context) {</tspan>
        </text>
        <text x="30" y="40">
            <tspan fill="#ffc66d">LinearLayout</tspan> <tspan fill="#a9b7c6">{</tspan>
        </text>
        <text x="55" y="60">
            <tspan fill="#ffc66d">TextView</tspan> <tspan fill="#a9b7c6">{}</tspan>
        </text>
        <text x="55" y="80">
            <tspan fill="#ffc66d">TextView</tspan> <tspan fill="#a9b7c6">{}</tspan>
        </text>
        <text x="55" y="100">
            <tspan fill="#ffc66d">ImageView</tspan> <tspan fill="#a9b7c6">{}</tspan>
        </text>
        <text x="30" y="120">
            <tspan fill="#a9b7c6">}</tspan>
        </text>
        <text x="5" y="140">
            <tspan fill="#a9b7c6">}</tspan>
        </text>
    </g>

    <rect x="312" width="10" height="160" fill="#313131" />

    <g font-family="monospace" font-size="13px" transform="translate(322 0)">
        <rect width="312" height="160" fill="#2b2b2b" />

        <text x="5" y="20">
            <tspan fill="#a9b7c6">koshian(contentView) {</tspan>
        </text>
        <text x="30" y="40">
            <tspan fill="#ffc66d">LinearLayout</tspan> <tspan fill="#a9b7c6">{</tspan>
        </text>
        <text x="55" y="60">
            <tspan fill="#ffc66d">TextView</tspan> <tspan fill="#a9b7c6">{}</tspan>
        </text>
        <text x="55" y="80">
            <tspan fill="#ffc66d">Space</tspan> <tspan fill="#a9b7c6">{}</tspan>
        </text>
        <text x="55" y="100">
            <tspan fill="#ffc66d">TextView</tspan> <tspan fill="#a9b7c6">{}</tspan>
        </text>
        <text x="55" y="120">
            <tspan fill="#ffc66d">ImageView</tspan> <tspan fill="#a9b7c6">{}</tspan>
        </text>
        <text x="30" y="140">
            <tspan fill="#a9b7c6">}</tspan>
        </text>
        <text x="5" y="160">
            <tspan fill="#a9b7c6">}</tspan>
        </text>
    </g>

    <g stroke="#6897bb" stroke-width="1px">
        <path marker-end="url(#arrow)" d="M 360,55 170,55"/>

        <path marker-end="url(#arrow)" d="M 360,95 170,75"/>

        <path marker-end="url(#arrow)" d="M 360,115 170,95"/>
    </g>

    <g stroke="#6897bb" stroke-width="1px">
        <line x1="354" x2="364" y1="75" y2="75" />
        <line x1="359" x2="359" y1="70" y2="80" />
    </g>
</svg>
